<?xml version="1.0" encoding="UTF-8" standalone="no"?>
<svg
   xmlns:dc="http://purl.org/dc/elements/1.1/"
   xmlns:cc="http://creativecommons.org/ns#"
   xmlns:rdf="http://www.w3.org/1999/02/22-rdf-syntax-ns#"
   xmlns:svg="http://www.w3.org/2000/svg"
   xmlns="http://www.w3.org/2000/svg"
   width="79.689186mm"
   height="51.369961mm"
   viewBox="0 0 282.36326 182.01955"
   id="svg3620"
   version="1.1">
  <defs
     id="defs3622" />
  <metadata
     id="metadata3625">
    <rdf:RDF>
      <cc:Work
         rdf:about="">
        <dc:format>image/svg+xml</dc:format>
        <dc:type
           rdf:resource="http://purl.org/dc/dcmitype/StillImage" />
        <dc:title></dc:title>
      </cc:Work>
    </rdf:RDF>
  </metadata>
  <g
     transform="translate(-215.96123,-189.92386)"
     id="layer1">
    <g
       transform="matrix(2.5,0,0,2.5,105.09575,101.14946)"
       id="g23">
      <path
         style="fill:#333333"
         d="m 74.957,54.705 c -2.78,3.55 -6.391,6.442 -9.446,8.974 -5.51,4.565 -14.432,8.081 -19.049,17.317 -3.958,7.914 -2.054,14.89 3.149,19.312 4.198,3.568 16.051,5.791 25.503,-0.263 C 86.374,92.833 89.441,84.144 89.002,77.18 87.92,59.983 69.356,63.618 60.106,75.118 55.693,80.604 80.625,57.695 81.572,76.94 81.896,83.523 72.039,98.051 59.056,95.269 53.178,94.01 51.342,88.08 52.916,83.671 55.908,75.294 60.078,73.308 68.029,65.724 78.263,55.964 81.149,46.798 74.957,54.705 Z"
         id="path25" />
    </g>
    <g
       transform="matrix(2.5,0,0,2.5,105.09575,101.14946)"
       id="g27">
      <path
         style="fill:#333333"
         d="m 146.904,36.285 c -1.521,-3.73 -0.315,6.507 -10.706,19.837 -5.569,7.145 -13.434,11.754 -20.249,21.291 -10.819,15.138 -3.366,24.784 2.295,27.838 9.13,4.927 18.374,3.873 27.189,-2.845 11.161,-8.504 12.28,-18.367 11.755,-23.824 -1.73,-18.003 -17.947,-15.114 -25.923,-7.137 -8.346,8.346 17.632,-13.539 18.341,9.319 0.231,7.487 -8.793,19.495 -21.939,17.625 -10.443,-1.486 -10.418,-12.371 -5.848,-18.128 7.425,-9.351 14.097,-14.78 18.367,-22.355 3.96,-7.023 8.005,-18.464 6.718,-21.621 z"
         id="path29" />
    </g>
    <g
       transform="matrix(2.5,0,0,2.5,105.09575,101.14946)"
       id="g31">
      <path
         style="fill:#66cc00"
         d="m 124.444,63.626 c 1.521,-1.128 -14.852,19.889 -20.015,22.863 -1.068,0.615 0.519,-10.374 -2.788,-6.91 -4.062,4.255 -13.374,10.064 -12.405,7.225 5.557,-16.277 -4.204,-20.055 -1.449,-19.189 2.189,0.688 7.084,6.14 6.691,10.863 -0.273,3.277 5.606,-0.735 8.849,-5.842 3.149,-4.959 3.098,5.161 4.251,4.723 4.376,-1.663 9.418,-8.21 16.866,-13.733 z"
         id="path33" />
    </g>
  </g>
</svg>
