<?xml version="1.0" encoding="UTF-8" standalone="no"?>
<svg
   xmlns:dc="http://purl.org/dc/elements/1.1/"
   xmlns:cc="http://creativecommons.org/ns#"
   xmlns:rdf="http://www.w3.org/1999/02/22-rdf-syntax-ns#"
   xmlns:svg="http://www.w3.org/2000/svg"
   xmlns="http://www.w3.org/2000/svg"
   width="3.9043453in"
   height="1.9571018in"
   viewBox="0 0 351.39108 176.13916"
   id="svg3508"
   version="1.1">
  <defs
     id="defs3510" />
  <metadata
     id="metadata3513">
    <rdf:RDF>
      <cc:Work
         rdf:about="">
        <dc:format>image/svg+xml</dc:format>
        <dc:type
           rdf:resource="http://purl.org/dc/dcmitype/StillImage" />
        <dc:title></dc:title>
      </cc:Work>
    </rdf:RDF>
  </metadata>
  <g
     transform="translate(-170.01874,-178.57834)"
     id="layer1">
    <g
       transform="matrix(2.419236,0,0,2.419236,62.734833,-177.0368)"
       id="g35">
      <path
         style="fill:#333333"
         d="m 74.957,166.189 c -2.78,3.55 -6.391,6.442 -9.446,8.974 -5.51,4.565 -14.432,8.082 -19.049,17.317 -3.958,7.914 -2.054,14.89 3.149,19.312 4.198,3.568 16.051,5.791 25.503,-0.263 11.26,-7.212 14.327,-15.901 13.888,-22.865 -1.082,-17.197 -19.646,-13.562 -28.896,-2.062 -4.413,5.486 20.519,-17.423 21.466,1.823 0.324,6.582 -9.533,21.111 -22.516,18.329 -5.878,-1.259 -7.714,-7.189 -6.14,-11.598 2.992,-8.377 7.162,-10.363 15.113,-17.947 10.234,-9.76 13.12,-18.927 6.928,-11.02 z"
         id="path37" />
    </g>
    <g
       transform="matrix(2.419236,0,0,2.419236,62.734833,-177.0368)"
       id="g39">
      <path
         style="fill:#333333"
         d="m 146.904,147.77 c -1.521,-3.73 -0.315,6.508 -10.706,19.837 -5.569,7.145 -13.434,11.754 -20.249,21.291 -10.819,15.138 -3.366,24.784 2.295,27.838 9.13,4.927 18.374,3.873 27.189,-2.845 11.161,-8.503 12.28,-18.367 11.755,-23.824 -1.73,-18.003 -17.947,-15.114 -25.923,-7.137 -8.346,8.346 17.632,-13.539 18.341,9.319 0.231,7.487 -8.793,19.495 -21.939,17.625 -10.443,-1.485 -10.418,-12.371 -5.848,-18.127 7.425,-9.351 14.097,-14.78 18.367,-22.355 3.96,-7.024 8.005,-18.465 6.718,-21.622 z"
         id="path41" />
    </g>
    <g
       transform="matrix(2.419236,0,0,2.419236,62.734833,-177.0368)"
       id="g43">
      <path
         style="fill:#66cc00"
         d="m 124.444,175.111 c 1.521,-1.128 -14.852,19.888 -20.015,22.863 -1.068,0.615 0.519,-10.374 -2.788,-6.91 -4.062,4.255 -13.374,10.064 -12.405,7.225 5.557,-16.277 -4.204,-20.055 -1.449,-19.189 2.189,0.688 7.084,6.14 6.691,10.862 -0.273,3.277 5.606,-0.735 8.849,-5.842 3.149,-4.959 3.098,5.161 4.251,4.723 4.376,-1.663 9.418,-8.209 16.866,-13.732 z"
         id="path45" />
    </g>
    <path
       style="fill:#333333"
       d="m 269.25049,322.49431 c -4.1248,5.55214 -7.97138,9.6721 -12.37197,12.13247 -2.69745,1.50718 -0.27821,1.90394 2.06361,1.90394 4.99572,0 9.83177,-8.24718 13.0034,-13.79933 1.27736,-2.23536 -1.10559,-2.37811 -2.69504,-0.23708 z"
       id="path47" />
    <path
       style="fill:#66cc00"
       d="m 364.40873,290.35718 c -1.84346,2.9297 -2.73133,4.63284 -3.14017,6.65774 -0.23467,1.15882 -2.44827,1.17816 -2.76519,0.80318 -0.78626,-0.93141 1.12494,-3.83449 4.16351,-7.65446 1.02334,-1.28703 2.2402,-0.59755 1.74185,0.19354 z"
       id="path49" />
    <path
       style="fill:#66cc00"
       d="m 408.37108,286.23964 c -2.2015,0.52981 -1.00641,-0.52982 -0.56368,-2.36601 0.19112,-0.78383 0.20563,-1.56767 -0.0508,-2.41198 -0.40885,-1.35236 -0.25644,0.0967 -0.51288,1.06204 -0.30725,1.15882 -1.0064,2.62246 -2.09748,3.81272 -1.22897,0.25643 -0.69674,0.20805 -1.33058,0.29031 -0.63626,0.0798 -1.05963,-0.35562 -1.40073,0.67496 -0.3895,0.89028 0.15482,0.72577 0.8177,0.57821 0.66287,-0.14516 1.55556,-0.25887 0.76931,0.93382 -1.04752,1.59428 -2.01521,3.60949 -2.94662,5.27152 -0.93141,1.66442 -1.42977,3.05065 -0.88545,3.69417 0.28548,0.33627 1.85314,0.23466 2.73858,0.10408 0.78384,-0.25645 0.53223,-0.62176 0.6169,-1.73702 0.0991,-1.333 1.20721,-5.36829 1.97652,-6.75693 0.75238,-1.34993 0.12822,-1.52654 3.02889,-1.75152 0.34353,-0.0822 0.68948,-0.58304 0.75963,-0.9169 0.41127,-1.06203 -0.40884,-0.72093 -0.91931,-0.48142 z"
       id="path51" />
    <path
       style="fill:#66cc00"
       d="m 373.02604,286.27351 c -2.2015,0.52982 -1.00882,-0.53223 -0.56368,-2.36602 0.19112,-0.78382 0.20322,-1.56765 -0.0508,-2.41439 -0.40886,-1.34993 -0.25645,0.0991 -0.51289,1.06204 -0.30724,1.15881 -1.0064,2.62245 -2.09748,3.81273 -0.25643,0.22497 -0.69674,0.20804 -1.33058,0.2903 -0.63383,0.0822 -1.05963,-0.35321 -1.40073,0.67497 -0.38708,0.89269 0.15725,0.72577 0.8177,0.58061 0.66045,-0.14758 1.06688,-0.30483 0.26612,0.87819 -1.19027,1.75394 -2.55229,3.69417 -3.48129,5.35618 -0.93382,1.66444 -1.42976,3.05066 -0.88786,3.69417 0.28548,0.3387 1.85072,0.23468 2.73858,0.10649 0.78141,-0.25644 0.52982,-0.62174 0.61449,-1.73701 0.0991,-1.33301 1.78781,-4.9667 2.59342,-6.33598 1.38138,-2.34666 0.554,-1.97893 3.45467,-2.20393 0.34111,-0.0798 0.68948,-0.58061 0.75964,-0.91688 0.41369,-1.06205 -0.40885,-0.72094 -0.91931,-0.48144 z"
       id="path53" />
    <path
       style="fill:#333333"
       d="m 273.74302,319.25012 c -0.70884,0.3024 -2.56924,-0.24919 -1.34994,-2.80632 0.23224,-0.48627 1.08382,-2.60793 3.23694,-2.05151 1.37655,0.36046 0.83705,3.68208 -1.887,4.85783 z"
       id="path55" />
    <path
       style="fill:#66cc00"
       d="m 365.21433,287.9573 c -0.2903,0.11373 -1.05236,-0.0967 -0.55642,-1.04753 0.0943,-0.17902 0.4403,-0.9677 1.32332,-0.75964 0.56368,0.13547 0.34836,1.37171 -0.7669,1.80717 z"
       id="path57" />
    <path
       style="fill:#333333"
       d="m 284.12154,321.59919 c -0.35563,1.7467 -4.42962,4.85299 -3.33129,3.0555 1.79265,-2.93695 3.59741,-11.63169 3.52967,-12.13488 -0.18628,-1.38623 -3.69417,-0.5903 -3.84659,0.63383 -1.2459,9.98419 -6.26582,16.32742 -13.16548,22.16988 -1.43461,1.21688 2.62729,1.28462 3.57079,1.0693 1.74427,-0.39918 6.81498,-6.09163 6.06744,-4.28446 -0.96285,2.32004 -2.80873,3.65062 -2.30069,4.1248 0.59271,0.554 4.28447,0.56368 4.71751,-0.47659 1.18785,-2.8547 1.19268,-4.30141 1.98377,-6.10616 0.71367,-1.62572 5.2304,-6.21744 6.02632,-7.81171 0.59755,-1.19752 -3.05307,-1.20962 -3.25145,-0.23951 z"
       id="path59" />
    <path
       style="fill:#66cc00"
       d="m 377.33712,289.91205 c -0.88302,0.26126 -1.80474,1.81442 -1.2072,0.69431 0.97737,-1.83378 2.58616,-7.67623 1.8991,-7.80929 -1.02333,-0.19112 -2.04667,-0.22499 -2.06844,0.62658 -0.16935,6.2634 -3.41355,10.19224 -7.17304,13.84045 -0.78141,0.75963 1.43219,0.80077 1.94506,0.66771 0.95319,-0.2516 3.73772,-4.87961 5.11428,-5.24249 2.78212,-0.73787 -1.36687,4.73929 -1.09108,5.03443 0.32176,0.34596 1.77571,0.48869 2.0128,-0.16208 0.65078,-1.78298 2.15071,-3.72321 2.32246,-5.6586 0.1379,-1.64023 -1.10075,-2.18456 -1.75394,-1.99102 z"
       id="path61" />
    <path
       style="fill:#333333"
       d="m 492.37663,329.82459 c 3.98932,-1.04511 4.77315,-3.33128 4.80218,-5.67794 0.0339,-2.53052 -3.02162,-3.924 -7.64962,-1.82169 -5.23765,2.3757 -7.26012,6.46421 -8.04637,8.75039 -1.15399,3.37483 1.75152,5.42876 3.80061,5.47231 1.94265,0.0411 4.79009,0.49352 7.30852,-2.09748 1.97167,-2.02732 1.11284,-2.70954 0.41368,-2.34666 -1.11526,0.57577 -2.39988,1.20962 -3.17887,1.39831 -2.02249,0.49594 -4.55059,0.29031 -4.60381,-0.93141 -0.0895,-1.99586 5.47957,-8.36329 7.80446,-8.36329 1.88941,0 1.14671,1.54347 0.12337,2.06845 -3.22483,1.65717 -4.10302,1.40315 -5.16022,1.3838 -1.92088,-0.0315 -2.44828,0.0291 -2.38537,1.17091 0.075,1.37654 1.01124,2.50632 6.77144,0.9943 z"
       id="path63" />
    <path
       style="fill:#333333"
       d="m 516.12385,321.56049 c -2.00313,0.97737 -4.15866,3.14984 -2.01764,6.35049 2.18941,3.27323 0.67013,5.73359 -1.87249,6.01664 -2.92728,0.32417 -4.64251,-2.71922 -4.58687,-1.07656 0.0532,1.74185 4.08125,5.15297 9.02375,2.8547 2.66358,-1.23865 3.56112,-3.59983 2.19425,-6.11583 -1.40316,-2.58132 -2.84019,-3.97481 -2.07813,-4.98846 2.48214,-3.31436 4.3885,2.9442 4.62074,-0.74513 0.0847,-1.38138 -2.09989,-3.85142 -5.28361,-2.29585 z"
       id="path65" />
    <path
       style="fill:#333333"
       d="m 296.46932,329.62138 c 3.9869,-1.04753 4.77315,-3.33371 4.80218,-5.68037 0.0339,-2.5281 -3.02162,-3.92157 -7.64962,-1.82168 -5.23765,2.37811 -7.26013,6.4642 -8.04638,8.75038 -1.15398,3.37484 1.74911,5.42876 3.80062,5.47231 1.94265,0.0411 4.79009,0.49352 7.30851,-2.0999 1.97167,-2.02732 1.11284,-2.70712 0.41369,-2.34666 -1.11527,0.57578 -2.39988,1.20962 -3.18129,1.40074 -2.02249,0.49353 -4.54817,0.28789 -4.60381,-0.93141 -0.0895,-1.99828 5.47957,-8.3633 7.80446,-8.3633 1.88941,0 1.14671,1.54348 0.12579,2.06604 -3.22484,1.65717 -4.10544,1.40315 -5.16264,1.3838 -1.92088,-0.0315 -2.44828,0.0315 -2.38295,1.17333 0.0726,1.37896 1.00882,2.50874 6.77144,0.99672 z"
       id="path67" />
    <path
       style="fill:#333333"
       d="m 308.00181,321.63064 c -2.00313,0.97738 -4.15866,3.14984 -2.01763,6.3505 2.18698,3.27323 0.67979,5.84729 -1.8725,6.01906 -2.26682,0.14999 -2.90066,-2.30795 -3.45466,-0.88302 0.0556,1.74185 2.94905,4.96185 7.89396,2.66116 2.65875,-1.24107 3.5587,-3.60224 2.19183,-6.11825 -1.40316,-2.58133 -2.84018,-3.97239 -2.08054,-4.98847 2.48455,-3.31435 4.39091,2.94422 4.62558,-0.74512 0.0847,-1.38138 -2.0999,-3.85143 -5.28604,-2.29586 z"
       id="path69" />
    <path
       style="fill:#66cc00"
       d="m 399.34249,289.36772 c -1.49025,-0.0363 -1.44187,0.0628 -1.63782,1.22412 -0.58787,3.49822 -2.0999,5.21105 -4.42962,4.99331 -1.36203,-0.12822 -1.57734,-1.4467 -1.46122,-2.22086 0.17902,-1.15639 0.51288,-1.93055 1.71524,-3.25387 0.69674,-0.76932 0.80802,-0.82254 -0.33386,-0.74996 -0.74028,0.0508 -1.65959,1.41283 -2.04667,2.0249 -0.63868,1.01608 -2.02006,3.30709 -1.13946,5.32715 0.45239,1.0427 1.57493,1.26284 2.72648,1.23624 2.09989,-0.0484 2.43616,-0.38708 3.27565,-1.32817 -0.063,0.29757 -0.33145,1.18542 0.28062,1.2072 1.53138,0.0605 1.96684,0.0991 1.89427,-0.60239 -0.22983,-2.26924 0.0604,-3.52966 1.56283,-6.92385 0.25885,-0.5782 0.8564,-0.90238 -0.40644,-0.93382 z"
       id="path71" />
    <path
       style="fill:#333333"
       d="m 438.19784,325.14096 c -3.59498,4.29655 -2.75793,7.18513 -1.33058,9.08907 1.43461,1.91119 7.67382,3.92158 12.2123,-0.71368 3.00954,-3.07 4.93041,-8.43104 1.91846,-11.18413 -3.14017,-2.86437 -10.38095,-0.87818 -13.38564,3.47886 -1.20235,1.74185 1.04511,2.87647 2.02975,1.5217 1.80958,-2.48455 5.78197,-4.74654 8.2641,-3.12323 2.81115,1.84346 0.44515,5.48441 -1.12494,6.84885 -3.3966,2.95389 -10.15111,1.51687 -7.13916,-3.72562 1.0572,-1.84346 -0.41369,-3.42322 -1.44429,-2.19182 z"
       id="path73" />
    <path
       style="fill:#66cc00"
       d="m 380.79663,291.78695 c -2.13377,2.40472 -1.63782,4.02077 -0.79109,5.08524 0.85157,1.0693 4.553,2.19424 7.25045,-0.39918 1.78539,-1.71766 2.92727,-4.71751 1.13704,-6.25615 -1.86281,-1.60395 -6.16179,-0.4911 -7.94477,1.94508 -0.71367,0.97494 0.61932,1.6112 1.20719,0.85156 1.07173,-1.39106 3.43048,-2.65632 4.90379,-1.74668 1.66928,1.03059 0.26371,3.06758 -0.6677,3.82964 -2.01765,1.65234 -6.02632,0.84916 -4.23366,-2.08538 0.62416,-1.02818 -0.24918,-1.91361 -0.86125,-1.22413 z"
       id="path75" />
    <path
       style="fill:#333333"
       d="m 451.11172,335.86059 c -1.12011,0.89028 4.5264,0.77174 5.83762,-0.56126 7.08836,-7.22142 8.19154,-10.86479 8.69958,-13.17758 0.28304,-1.29672 -2.99261,-1.4709 -3.41355,-0.24435 -1.9112,5.5715 -3.38451,8.627 -9.35277,13.30096 1.1322,0.0339 2.26683,0.0678 3.40145,0.10408 3.19339,-2.99502 4.87234,-6.23437 3.17162,-13.26708 -0.29273,-1.20721 -4.1877,-1.10802 -3.64337,-0.0678 2.84744,5.43844 -1.11769,11.07526 -4.70058,13.91302 z"
       id="path77" />
    <path
       style="fill:#333333"
       d="m 495.54341,335.86059 c -1.12253,0.89028 4.52397,0.77174 5.83762,-0.56126 7.08594,-7.22142 8.19153,-10.86479 8.69957,-13.17758 0.28305,-1.29672 -2.99259,-1.4709 -3.41596,-0.24435 -1.9112,5.5715 -3.38451,8.627 -9.35277,13.30096 1.13463,0.0339 2.26924,0.0678 3.40387,0.10408 3.19339,-2.99502 4.87476,-6.23437 3.17161,-13.26708 -0.29272,-1.20721 -4.18769,-1.10802 -3.64095,-0.0678 2.84261,5.43844 -1.12252,11.07526 -4.70299,13.91302 z"
       id="path79" />
    <path
       style="fill:#333333"
       d="m 476.10969,321.28711 c -4.55059,-0.3024 -7.89155,2.39505 -10.20192,7.53109 -2.23053,4.95459 -0.70641,7.87945 4.63768,7.75848 5.48924,-0.12096 7.60123,-4.91104 10.69302,-12.61148 3.47644,-8.65844 4.49011,-10.42931 6.62871,-13.04451 0.58787,-0.72094 -1.73943,-0.1379 -2.89099,1.26284 -1.00641,1.22413 -1.80959,2.43859 -2.64423,3.81029 -2.00313,3.28533 -4.11754,6.52227 -5.74568,10.01323 -1.6233,3.47644 -3.8224,7.75365 -6.16663,7.90364 -2.40473,0.14999 -1.04511,-3.40871 -0.2129,-5.29572 2.0128,-4.57235 6.4521,-5.14812 5.55457,-1.31122 -0.87577,3.75708 3.0821,-2.27166 3.22,-2.90792 0.15967,-0.74513 -0.92898,-2.9805 -2.87163,-3.10872 z"
       id="path81" />
  </g>
</svg>
